<?xml version="1.0" encoding="UTF-8" standalone="no"?>
<!DOCTYPE svg PUBLIC "-//W3C//DTD SVG 1.1//EN" "http://www.w3.org/Graphics/SVG/1.1/DTD/svg11.dtd">
<svg version="1.1" xmlns="http://www.w3.org/2000/svg" xmlns:xlink="http://www.w3.org/1999/xlink" preserveAspectRatio="xMidYMid meet" viewBox="0 0 17 17" width="17" height="17"><defs><path d="M15.16 3.73C15.54 3.73 15.85 4.04 15.85 4.43C15.85 4.67 15.85 4.69 15.85 4.93C15.85 5.31 15.54 5.63 15.16 5.63C12.35 5.63 4.65 5.63 1.84 5.63C1.46 5.63 1.15 5.31 1.15 4.93C1.15 4.69 1.15 4.67 1.15 4.43C1.15 4.04 1.46 3.73 1.84 3.73C4.65 3.73 12.35 3.73 15.16 3.73Z" id="a7edLDjGn1"></path><path d="M15.16 7.55C15.54 7.55 15.85 7.86 15.85 8.25C15.85 8.49 15.85 8.51 15.85 8.75C15.85 9.14 15.54 9.45 15.16 9.45C12.35 9.45 4.65 9.45 1.84 9.45C1.46 9.45 1.15 9.14 1.15 8.75C1.15 8.51 1.15 8.49 1.15 8.25C1.15 7.86 1.46 7.55 1.84 7.55C4.65 7.55 12.35 7.55 15.16 7.55Z" id="aGxMOLfxr"></path><path d="M15.31 11.39C15.69 11.39 16.01 11.7 16.01 12.08C16.01 12.32 16.01 12.35 16.01 12.59C16.01 12.97 15.69 13.28 15.31 13.28C12.51 13.28 4.8 13.28 2 13.28C1.61 13.28 1.3 12.97 1.3 12.59C1.3 12.35 1.3 12.32 1.3 12.08C1.3 11.7 1.61 11.39 2 11.39C4.8 11.39 12.51 11.39 15.31 11.39Z" id="g16Z3bZffF"></path></defs><g><g><g><use xlink:href="#a7edLDjGn1" opacity="1" fill="#e54918" fill-opacity="1"></use></g><g><use xlink:href="#aGxMOLfxr" opacity="1" fill="#e54918" fill-opacity="1"></use></g><g><use xlink:href="#g16Z3bZffF" opacity="1" fill="#e54918" fill-opacity="1"></use></g></g></g></svg>